<svg width="151" height="33" viewBox="0 0 151 33" fill="none" xmlns="http://www.w3.org/2000/svg">
<g clip-path="url(#clip0_6551_12082)">
<path d="M13.0119 19.6062C11.8398 20.4102 10.5461 21.277 9.2867 22.1919C9.15774 22.2858 9.17733 22.6898 9.23609 22.92C10.1298 26.3865 7.1776 29.515 3.70868 28.7674C1.7367 28.347 0.385044 26.8583 0.0479469 24.7475C-0.232015 22.9731 0.735201 21.0476 2.3962 20.0951C4.02537 19.1597 6.20303 19.3099 7.63957 20.5465C8.10645 20.9464 8.39049 20.9668 8.87043 20.6069C9.87601 19.8486 10.9273 19.1515 11.972 18.448C12.2896 18.2341 12.3304 18.0015 12.3818 17.6081C12.5573 16.3054 11.8031 15.7455 10.8416 15.2272C10.0629 14.8068 9.32506 14.3097 8.58802 13.8168C8.23949 13.5833 7.97177 13.5662 7.57999 13.7735C6.16059 14.5163 4.48 13.9049 3.81234 12.4471C3.62678 12.0233 3.55034 11.5598 3.58997 11.0988C3.6296 10.6379 3.78406 10.1942 4.03923 9.80824C4.29441 9.42231 4.64218 9.10643 5.0508 8.88945C5.45942 8.67246 5.91588 8.56128 6.37852 8.56604C6.94272 8.57472 7.49022 8.75878 7.94508 9.09269C8.39994 9.4266 8.73961 9.89379 8.91695 10.4295C9.02061 10.7306 9.11611 11.093 9.04183 11.3828C8.85166 12.1362 9.24181 12.4643 9.81479 12.7916C10.8032 13.3621 11.7517 14.0037 12.7181 14.6118C12.7556 14.6362 12.8062 14.6379 12.6495 14.5954C13.6118 14.0045 14.4558 13.5074 15.2728 12.9671C15.3518 12.896 15.4156 12.8097 15.4604 12.7133C15.5051 12.617 15.5299 12.5125 15.5332 12.4063C15.5569 11.684 15.485 10.9576 15.5332 10.2376C15.5765 9.6059 15.3202 9.36919 14.7349 9.1831C12.8691 8.58644 11.777 7.2503 11.5272 5.32158C11.2815 3.43122 11.9941 1.86409 13.6004 0.814431C15.263 -0.264606 17.013 -0.267871 18.6813 0.783415C20.3489 1.83389 21.0541 3.44428 20.7929 5.40483C20.548 7.25928 19.4706 8.52359 17.7207 9.13902C17.1493 9.33899 16.9575 9.58957 17.0008 10.165C17.0571 10.8849 17.0554 11.6122 17.0473 12.3345C17.0473 12.7255 17.2162 12.8765 17.5639 13.0348C18.1549 13.296 18.7132 13.6241 19.2274 14.0151C19.5563 14.2714 19.7579 14.3514 20.1228 14.0975C21.1365 13.3901 22.1675 12.7075 23.2146 12.0505C23.635 11.7844 23.7835 11.4905 23.7745 10.9804C23.7329 9.51693 24.6724 8.47054 26.1359 8.24771C27.454 8.04611 28.6906 8.83539 29.1077 10.1446C29.2688 10.672 29.2706 11.2351 29.1129 11.7635C28.9552 12.2919 28.645 12.762 28.2213 13.1148C27.3626 13.8151 26.0763 13.9555 25.1401 13.3417C24.6422 13.0112 24.3353 13.123 23.919 13.4103C22.8824 14.1261 22.2498 14.4975 21.1822 15.1668C20.9148 15.3466 20.6974 15.5914 20.5503 15.8782C20.4033 16.165 20.3314 16.4844 20.3415 16.8066C20.3758 17.8627 20.9921 18.1615 21.743 18.6267C22.811 19.2942 23.8668 19.981 24.9099 20.6868C25.2633 20.9293 25.4861 20.8999 25.8208 20.6395C27.4483 19.3719 29.5493 19.2617 31.2405 20.3073C32.8011 21.2786 33.6859 23.2261 33.3757 25.0063C33.0166 27.0541 31.6208 28.485 29.5746 28.8972C26.1081 29.5975 23.2146 26.2722 24.2961 22.8066C24.4357 22.374 24.3908 22.1618 23.9916 21.9144C22.7445 21.139 21.5267 20.313 20.3007 19.505C20.0297 19.327 19.842 19.2544 19.522 19.5295C18.9491 20.0208 18.27 20.3865 17.6611 20.8403C17.4733 20.9799 17.2415 21.2321 17.2415 21.4361C17.2236 22.649 17.2415 23.8636 17.3101 25.0781C17.3232 25.2895 17.6186 25.5441 17.8423 25.6715C18.9034 26.2706 19.4698 27.3529 19.2992 28.5364C19.1278 29.7215 18.3328 30.5647 17.1575 30.8398C16.5127 30.9796 15.8391 30.8823 15.2602 30.5657C14.6814 30.2491 14.236 29.7345 14.0059 29.1161C13.7758 28.4978 13.7763 27.8172 14.0074 27.1992C14.2384 26.5812 14.6845 26.0672 15.2638 25.7515C15.6842 25.5229 15.8074 25.2666 15.7895 24.821C15.7522 23.7718 15.7345 22.7219 15.7364 21.672C15.7364 21.2362 15.6303 20.9946 15.152 20.8068C14.4362 20.522 13.7906 20.0494 13.0119 19.6062ZM4.71017 27.3521C5.54659 27.347 6.34758 27.0138 6.94077 26.4241C7.53397 25.8344 7.87195 25.0354 7.88199 24.199C7.87208 23.3622 7.53932 22.5615 6.95318 21.9641C6.36704 21.3667 5.57282 21.0188 4.73629 20.9929C3.01081 20.9733 1.5155 22.4638 1.52938 24.2007C1.54386 25.0363 1.88478 25.8332 2.47921 26.4207C3.07363 27.0083 3.87438 27.3399 4.71017 27.3447V27.3513V27.3521ZM31.9008 24.368C31.9148 23.5311 31.5998 22.7222 31.0236 22.1152C30.4474 21.5082 29.656 21.1515 28.8196 21.1219C27.0941 21.0803 25.5988 22.4858 25.558 24.1933C25.5488 25.0257 25.867 25.8283 26.4441 26.4281C27.0212 27.0279 27.811 27.3769 28.6431 27.3999C29.4751 27.4228 30.2829 27.1178 30.8921 26.5506C31.5014 25.9834 31.8642 25.1996 31.9008 24.368ZM19.3253 4.74778C19.3285 3.9116 19.0029 3.10769 18.4187 2.50944C17.8345 1.91119 17.0385 1.56654 16.2025 1.54984C14.5023 1.54005 13.0233 2.97332 12.9817 4.68166C12.9393 6.39 14.4166 7.90245 16.1698 7.90245C16.5845 7.90364 16.9953 7.82285 17.3786 7.66475C17.7619 7.50664 18.1102 7.27432 18.4035 6.98116C18.6967 6.688 18.9291 6.33976 19.0873 5.95648C19.2455 5.5732 19.3264 5.16243 19.3253 4.74778ZM16.3706 14.3653C15.6882 14.3813 15.0388 14.6623 14.5598 15.1487C14.0809 15.6351 13.81 16.2888 13.8045 16.9714C13.8232 18.3492 15.0533 19.5327 16.4433 19.5099C17.799 19.487 18.9736 18.2855 18.9646 16.9306C18.9545 16.2484 18.6771 15.5974 18.192 15.1177C17.7069 14.6379 17.0529 14.3677 16.3706 14.3653ZM16.5796 26.9056C15.9307 26.9236 15.3185 27.5537 15.3471 28.1895C15.3667 28.8017 15.9699 29.3698 16.6073 29.3714C16.9361 29.3609 17.2475 29.2215 17.4741 28.9832C17.7008 28.7449 17.8246 28.4269 17.8186 28.0981C17.7851 27.4484 17.1999 26.8893 16.5796 26.9056ZM7.55142 11.3436C7.55142 10.6727 6.96375 10.072 6.31404 10.0834C5.99642 10.0964 5.69544 10.2289 5.47142 10.4545C5.2474 10.68 5.11689 10.9818 5.10604 11.2995C5.10073 11.4626 5.12913 11.625 5.18947 11.7767C5.2498 11.9283 5.34077 12.0658 5.45668 12.1806C5.57259 12.2955 5.71095 12.3851 5.86311 12.4441C6.01527 12.503 6.17795 12.5299 6.34097 12.5231C6.498 12.5256 6.65399 12.4971 6.79995 12.4391C6.94591 12.3812 7.07895 12.2949 7.19139 12.1852C7.30384 12.0756 7.39347 11.9448 7.45512 11.8003C7.51678 11.6559 7.55004 11.5007 7.55142 11.3436ZM26.4966 12.1949C26.8129 12.1797 27.1122 12.0472 27.3362 11.8232C27.5601 11.5993 27.6926 11.3 27.7079 10.9837C27.7053 10.8229 27.6711 10.6642 27.6072 10.5166C27.5433 10.3691 27.4509 10.2355 27.3354 10.1237C27.2199 10.0118 27.0835 9.92379 26.934 9.86463C26.7845 9.80548 26.6248 9.77636 26.464 9.77893C26.3032 9.78151 26.1445 9.81572 25.9969 9.87963C25.8494 9.94353 25.7158 10.0359 25.604 10.1514C25.4921 10.2669 25.4041 10.4033 25.3449 10.5528C25.2858 10.7024 25.2567 10.8621 25.2592 11.0228C25.2773 11.339 25.4155 11.6363 25.6455 11.854C25.8755 12.0717 26.1799 12.1934 26.4966 12.1941V12.1949ZM141.096 19.2364V25.8559C140.453 25.8559 139.877 25.878 139.306 25.8413C139.186 25.8331 139.026 25.6372 138.979 25.4968C138.921 25.3303 138.959 25.1287 138.959 24.9369V5.81131H141.09V18.4504C141.39 18.2088 141.569 18.0856 141.723 17.9362C143.433 16.2817 145.157 14.6428 146.834 12.9556C147.382 12.4047 147.928 12.079 148.724 12.1819C149.198 12.2439 149.687 12.1933 150.328 12.1933C148 14.4216 145.786 16.5356 143.488 18.7377L151 25.851C150.003 25.851 149.18 25.8821 148.36 25.8298C148.149 25.8176 147.94 25.5637 147.754 25.3915C145.708 23.4825 143.664 21.5709 141.622 19.6568C141.507 19.5507 141.377 19.4666 141.096 19.2364ZM87.45 22.7274C87.6549 23.1681 87.8957 23.551 87.9977 23.968C88.0426 24.1484 87.8581 24.4806 87.6859 24.6063C85.9041 25.8674 83.8807 26.269 81.7659 25.9482C78.2292 25.4119 76.2613 23.0588 76.1568 19.4593C76.1079 17.7697 76.3642 16.1626 77.2587 14.6983C79.2838 11.3746 84.4153 10.7764 86.8607 13.6045C88.1405 15.0843 88.4099 16.8898 88.418 18.8487C88.1381 18.8618 87.89 18.883 87.6435 18.883C84.7516 18.883 81.8581 18.8969 78.9605 18.8716C78.3933 18.8716 78.1762 19.0381 78.2978 19.5931C78.452 20.2926 78.532 21.0256 78.7793 21.6932C79.3776 23.2996 80.6297 24.0954 82.2948 24.2692C84.1998 24.461 85.8927 23.906 87.45 22.7274ZM78.4267 17.4824H86.4534C86.3971 15.0639 84.9948 13.5213 82.8384 13.4446C80.4297 13.358 78.63 14.9848 78.4267 17.4824ZM107.688 32.0094C107.548 31.518 107.399 31.0152 107.242 30.4774L108.745 29.9966C110.742 29.3624 111.619 27.7365 112.28 25.9457C112.36 25.7294 112.224 25.4021 112.119 25.1564C110.377 21.063 108.629 16.9724 106.874 12.8846C106.793 12.6953 106.734 12.4961 106.619 12.1843C107.305 12.1843 107.926 12.1378 108.532 12.2121C108.723 12.2341 108.937 12.5565 109.032 12.7867C110.404 16.1005 111.758 19.4225 113.118 22.7445C113.211 22.9723 113.329 23.1918 113.494 23.5395C113.781 22.8727 114.025 22.3266 114.253 21.7765C115.476 18.8283 116.712 15.8859 117.895 12.9238C118.12 12.3631 118.389 12.0831 119.015 12.1647C119.402 12.2121 119.799 12.1729 120.327 12.1729C119.852 13.2846 119.429 14.2844 118.999 15.2827C117.179 19.4993 115.413 23.7338 113.538 27.9202C112.472 30.2798 110.217 31.7702 107.688 32.0094ZM51.2802 12.1843C51.2157 12.2121 51.2369 12.1966 51.2582 12.1949C53.0938 12.0676 53.0938 12.0676 53.2701 13.8657L53.3371 14.566C53.573 14.2387 53.7084 14.0535 53.8407 13.8657C55.5204 11.4767 59.8619 11.0832 61.7923 13.1532C62.7725 14.2118 63.0288 15.548 63.0525 16.9151C63.0949 19.6894 63.0525 22.4654 63.0753 25.2405C63.0753 25.7237 62.935 25.9163 62.4436 25.8796C61.9824 25.8445 61.5164 25.8715 60.9703 25.8715C60.954 25.5809 60.9311 25.336 60.9311 25.0912V17.324C60.9214 14.9195 60.1117 13.8388 58.1438 13.6086C55.9808 13.3556 54.0545 14.6322 53.5868 16.6605C53.4851 17.1152 53.4333 17.5796 53.4326 18.0456C53.4171 20.4004 53.4326 22.7568 53.4326 25.1124V25.8331H51.2802V12.1843ZM124.949 14.482C125.056 14.3853 125.154 14.2787 125.242 14.1636C126.707 11.6056 130.44 11.2742 132.57 12.4831C133.971 13.2732 134.541 14.6379 134.583 16.125C134.671 19.3393 134.609 22.556 134.609 25.8217H132.606C132.583 25.5539 132.541 25.287 132.541 25.0177C132.529 22.3568 132.541 19.696 132.5 17.0351C132.487 16.4314 132.383 15.8332 132.191 15.2606C131.911 14.4012 131.238 13.9025 130.358 13.7033C127.423 13.0422 125.1 14.8444 125.023 17.9133C124.964 20.2689 125.008 22.627 125.007 24.9842V25.8078H122.906V12.2227C122.858 12.2423 122.921 12.1933 122.982 12.1949C125.051 12.2145 124.616 11.8333 124.851 13.7947C124.875 13.9833 124.905 14.1783 124.949 14.482ZM68.082 13.7947H65.4358V12.1713C66.1149 12.1713 66.7589 12.1492 67.4029 12.1713C67.9049 12.1941 68.1188 12.0317 68.0926 11.4979C68.0526 10.6841 68.0575 9.86545 68.0926 9.05087C68.1045 8.93613 68.142 8.82552 68.2023 8.72719C68.2626 8.62887 68.3442 8.54535 68.4411 8.48278C68.9856 8.23465 69.5683 8.06243 70.2221 7.83797C70.2221 9.08923 70.2491 10.2687 70.2115 11.4448C70.1928 11.9909 70.3642 12.19 70.9118 12.1729C71.9574 12.1419 73.0054 12.1647 74.0975 12.1647V13.789H70.2678C70.2515 14.1098 70.2295 14.3489 70.2295 14.6011V21.388C70.2295 23.6048 71.364 24.5516 73.5335 24.1345C73.7115 24.1011 73.8902 24.0782 74.0526 24.0529C74.0853 24.1076 74.1065 24.1264 74.1098 24.1468C74.2853 25.8282 74.1261 26.0094 72.4284 26.0192C69.5618 26.0339 68.122 24.6022 68.0869 21.6581C68.0624 19.3491 68.0796 17.0367 68.0796 14.7317L68.082 13.7947ZM101.863 5.80723H103.89V25.8347H101.863V5.80723ZM44.5652 25.8625V6.47897H46.5796C46.5976 6.66099 46.6319 6.83811 46.6319 7.01604C46.6319 13.0136 46.6204 19.0103 46.6417 25.0071C46.6417 25.6568 46.5111 25.9694 45.8009 25.8723C45.4157 25.8208 45.0174 25.8625 44.566 25.8625H44.5652ZM99.4027 11.9264V13.8184C99.0264 13.7759 98.7138 13.7286 98.3987 13.7074C95.8668 13.536 94.1373 14.9962 94.0459 17.5363C93.9553 20.0306 93.9855 22.529 94.0189 25.025C94.0279 25.7107 93.8271 25.9033 93.157 25.878C91.8959 25.8306 91.8959 25.8682 91.8959 24.6177C91.8861 21.1635 91.8804 17.7117 91.8584 14.2534C91.8584 13.6037 91.776 12.9556 91.718 12.1835C92.2787 12.1835 92.8117 12.1427 93.3292 12.2088C93.4818 12.2284 93.6802 12.5328 93.7137 12.7312C93.8108 13.2919 93.8345 13.8739 93.9536 14.4861C95.1355 12.2513 96.9924 11.5681 99.4027 11.9264Z" fill="#191919"/>
</g>
<defs>
<clipPath id="clip0_6551_12082">
<rect width="151" height="32.6486" fill="white"/>
</clipPath>
</defs>
</svg>
